<svg width="20" height="20" viewBox="0 0 100 100" fill="none" xmlns="http://www.w3.org/2000/svg"><g clip-path="url(#clip0_3221_1283)"><path d="M75.2455 99.7929H24.5368C10.9864 99.7929 0 88.8065 0 75.2526V24.5439C0 10.9935 10.9864 0.00712585 24.5368 0.00712585H75.2455C88.796 0.00712585 99.7823 10.9935 99.7823 24.5439V75.2526C99.7858 88.8065 88.7994 99.7929 75.2455 99.7929Z" fill="black" /><path d="M41.4637 42.4752V39.4587C40.4168 39.2931 39.3595 39.2026 38.2997 39.1879C28.0401 39.1673 18.9596 45.814 15.8779 55.5971C12.7963 65.3803 16.4332 76.0342 24.8521 81.8925C16.0185 72.4383 16.5224 57.6127 25.9765 48.7791C30.1891 44.8465 35.7021 42.6025 41.4637 42.4752Z" fill="#25F4EE" /><path d="M42.0326 76.6306C47.7674 76.6238 52.4808 72.1058 52.7344 66.3744V15.2406H62.0754C61.8844 14.1728 61.7937 13.0894 61.8046 12.0047H49.0289V63.0871C48.8164 68.8459 44.0893 73.4084 38.327 73.4187C36.6062 73.405 34.9094 72.9799 33.384 72.1847C34.3732 73.5549 35.6722 74.672 37.1752 75.4446C38.6783 76.2173 40.3426 76.6237 42.0326 76.6306ZM79.5199 32.5892V29.7475C76.0818 29.7475 72.719 28.7328 69.8567 26.8303C72.3658 29.7498 75.7583 31.7715 79.5199 32.5892Z" fill="#25F4EE" /><path d="M69.8604 26.8338C67.0387 23.6218 65.4837 19.492 65.4864 15.2166H62.0756C62.5148 17.5807 63.4317 19.8303 64.7703 21.8278C66.1088 23.8253 67.8408 25.5287 69.8604 26.8338ZM38.2998 51.967C32.3764 51.9979 27.598 56.8243 27.6288 62.7477C27.6386 64.6922 28.1767 66.5974 29.1857 68.2596C30.1946 69.9218 31.6364 71.2786 33.3568 72.1847C29.8912 67.3994 30.9607 60.7081 35.746 57.2391C37.5745 55.9148 39.7752 55.2032 42.0328 55.2064C43.1057 55.2201 44.1718 55.388 45.1967 55.7034V42.7014C44.1512 42.5438 43.092 42.4615 42.0328 42.4546H41.4638V52.3407C40.432 52.0596 39.3659 51.9362 38.2998 51.967Z" fill="#FE2C55" /><path d="M79.5202 32.5892V42.4752C73.1559 42.463 66.9568 40.4482 61.8015 36.7163V62.6894C61.774 75.6503 51.2607 86.143 38.2999 86.143C33.4865 86.1522 28.789 84.667 24.8557 81.8925C33.6757 91.3774 48.515 91.919 58.0034 83.0991C60.3637 80.905 62.2465 78.2479 63.534 75.2936C64.8215 72.3394 65.4861 69.1514 65.4864 65.9288V40.0277C70.6597 43.7332 76.8657 45.7212 83.2292 45.7111V32.9868C81.9814 32.98 80.7405 32.8497 79.5202 32.5892Z" fill="#FE2C55" /><path d="M61.8013 62.6929V36.7198C66.9731 40.4283 73.1801 42.4165 79.5441 42.4032V32.5172C75.7845 31.7224 72.3848 29.7278 69.8569 26.8338C67.8383 25.5276 66.107 23.8239 64.7686 21.8266C63.4301 19.8293 62.5127 17.5802 62.0721 15.2166H52.7312V66.3744C52.4878 72.2944 47.4968 76.8946 41.5768 76.6547C39.9573 76.5889 38.3737 76.1569 36.9452 75.391C35.5166 74.6251 34.2804 73.5452 33.3293 72.2327C28.0881 69.4732 26.0759 62.9877 28.8354 57.7464C29.7409 56.0255 31.0975 54.5834 32.7599 53.5744C34.4222 52.5653 36.3277 52.0275 38.2723 52.0184C39.3453 52.0287 40.4113 52.1933 41.4363 52.512V42.4786C28.4994 42.698 18.1883 53.513 18.4077 66.4498C18.507 72.3084 20.7977 77.9171 24.8282 82.1701C28.8001 84.8531 33.5041 86.2431 38.2963 86.1499C51.2606 86.1465 61.7739 75.6537 61.8013 62.6929Z" fill="white" /></g><defs><clipPath id="clip0_3221_1283"><rect width="100" height="99.8" fill="white" /></clipPath></defs></svg>